# xmcd
#
# Track frame offsets:
# 150
# 15810
# 21410
# 37765
# 59807
# 70315
# 84010
# 101310
# 111862
# 123187
# 137200
# 150115
# 162432
# 172902
# 189862
# 205702
# 216302
# 226012
#
# Disc length: 3227 seconds
#
#
# Revision: 0
# Processed by: cddbd v1.5.1PL2 Copyright (c) Steve Scherf et al.
# Submitted via: FreeRIP 2.945 
#
DISCID=d50c9912
DTITLE=Eric Clapton - Mr. Guitar
DYEAR=1900
DGENRE=Blues
TTITLE0=Eric Clapton feat. Jack Bruce and Ginger Baker/Louise
TTITLE1=Eric Clapton and Jimmy Page/Choker
TTITLE2=Eric Clapton feat. Jack Bruce and Ginger Baker/Early In The Morning
TTITLE3=Eric Clapton and Yardbirds/The First Time I Met The Blues
TTITLE4=Eric Clapton and Jimmy Page/Pounds And Stomps
TTITLE5=Eric Clapton and Jeff Beck/Jeff's Blues
TTITLE6=Eric Clapton feat. Jack Bruce and Ginger Baker/Big Boss Man
TTITLE7=Eric Clapton and Yardbirds/A Certain Girl
TTITLE8=Eric Clapton and Yardbirds/Snake Drive
TTITLE9=Eric Clapton and Jimmy Page/Draggin' My Tail
TTITLE10=Eric Clapton and Jimmy Page/Freight Loader
TTITLE11=Eric Clapton and Jimmy Page/Highway 49
TTITLE12=Eric Clapton/Putty In Your Hands
TTITLE13=Eric Clapton feat. Jack Bruce and Ginger Baker/Stormy Monday Blues
TTITLE14=Eric Clapton and Yardbirds/Train Kept A-Rollin'
TTITLE15=Eric Clapton and Yardbirds/West Coast Idea
TTITLE16=Eric Clapton and Jimmy Page/Tribute To Elmore
TTITLE17=Eric Clapton and Jimmy Page/Little Red Rooster
EXTD=
EXTT0=
EXTT1=
EXTT2=
EXTT3=
EXTT4=
EXTT5=
EXTT6=
EXTT7=
EXTT8=
EXTT9=
EXTT10=
EXTT11=
EXTT12=
EXTT13=
EXTT14=
EXTT15=
EXTT16=
EXTT17=
PLAYORDER=
